. 
  
http://www.torrentday.com/        :     The Hottest Private Tracker On The Net!!!
 
http://www.torrentday.com          :     Once & For all ;)


               www . TorrentDay . Com 

(((((((((((((= Enjoy No RAR releases =))))))))))))))))))))


...................................NFO:....................................

.Format : AVI
Format/Info : Audio Video Interleave
File size : 1.47 GiB
Duration : 2h 4mn
Overall bit rate : 1 691 Kbps

Video
ID : 0
Format : MPEG-4 Visual
Format profile : Simple@L3
Format settings, BVOP : No
Format settings, QPel : No
Format settings, GMC : No warppoints
Format settings, Matrix : Default (H.263)
Codec ID : XVID
Codec ID/Hint : XviD
Duration : 2h 4mn
Bit rate : 1 550 Kbps
Width : 720 pixels
Height : 480 pixels
Display aspect ratio : 1.500
Frame rate : 29.970 fps
Original frame rate : 29.000 fps
Standard : NTSC
Resolution : 24 bits
Colorimetry : 4:2:0
Scan type : Progressive
Bits/(Pixel*Frame) : 0.150
Stream size : 1.34 GiB (92%)
Writing library : XviD 1.2.1 (UTC 2008-12-04)

Audio
ID : 1
Format : MPEG Audio
Format version : Version 1
Format profile : Layer 3
Format_Settings_Mode : Joint stereo / MS Stereo
Codec ID : 55
Codec ID/Hint : MP3
Duration : 2h 4mn
Bit rate mode : Constant
Bit rate : 128 Kbps
Channel(s) : 2 channels
Sampling rate : 44.1 KHz
Resolution : 16 bits
Stream size : 114 MiB (8%)
Alignment : Aligned on interleaves
Interleave, duration : 26 ms (0.78 video frame)
Writing library : LAME3.98.2